<?xml version="1.0" encoding="UTF-8"?>
<svg width="88px" height="88px" viewBox="0 0 88 88" version="1.1" xmlns="http://www.w3.org/2000/svg" xmlns:xlink="http://www.w3.org/1999/xlink">
    <!-- Generator: Sketch 40.3 (33839) - http://www.bohemiancoding.com/sketch -->
    <title>coin</title>
    <desc>Created with Sketch.</desc>
    <defs>
        <circle id="path-1" cx="44" cy="44" r="44"></circle>
        <mask id="mask-2" maskContentUnits="userSpaceOnUse" maskUnits="objectBoundingBox" x="0" y="0" width="88" height="88" fill="white">
            <use xlink:href="#path-1"></use>
        </mask>
    </defs>
    <g id="Page-1" stroke="none" stroke-width="1" fill="none" fill-rule="evenodd">
        <g id="Desktop" transform="translate(-677.000000, -4955.000000)" stroke="#718DFD">
            <g id="coin" transform="translate(677.000000, 4955.000000)">
                <use id="Oval-7" mask="url(#mask-2)" stroke-width="6" xlink:href="#path-1"></use>
                <circle id="Oval-7" stroke-width="3" stroke-linecap="round" stroke-linejoin="round" stroke-dasharray="1,14" cx="44" cy="44" r="33"></circle>
                <path d="M34,31 L47.9993405,31 C51.3134132,31 54,33.6930342 54,37 L54,37 C54,40.3137085 51.3183006,43 48.0069348,43 L39,43" id="Rectangle-22" stroke-width="3" stroke-linecap="round"></path>
                <path d="M38.5,30.5 L38.5,25.4009805" id="Line" stroke-width="3" stroke-linecap="round"></path>
                <path d="M45.5,30.5 L45.5,25.4000001" id="Line" stroke-width="3" stroke-linecap="round"></path>
                <path d="M38.5,62.5 L38.5,57.4009805" id="Line" stroke-width="3" stroke-linecap="round"></path>
                <path d="M45.5,62.5 L45.5,57.4000001" id="Line" stroke-width="3" stroke-linecap="round"></path>
                <path d="M34,43 L50.0055637,43 C53.8684842,43 57,46.1418733 57,50 L57,50 C57,53.8659932 53.8646393,57 50.0020796,57 L39,57" id="Rectangle-22" stroke-width="3" stroke-linecap="round" transform="translate(45.500000, 50.000000) scale(1, -1) translate(-45.500000, -50.000000) "></path>
                <path d="M38.5,30.5 L38.5,56.5178515" id="Line" stroke-width="3" stroke-linecap="square"></path>
            </g>
        </g>
    </g>
</svg>