<?xml version="1.0" encoding="UTF-8"?>
<svg width="83px" height="83px" viewBox="0 0 83 83" version="1.1" xmlns="http://www.w3.org/2000/svg" xmlns:xlink="http://www.w3.org/1999/xlink">
    <!-- Generator: Sketch 40.3 (33839) - http://www.bohemiancoding.com/sketch -->
    <title>increase</title>
    <desc>Created with Sketch.</desc>
    <defs>
        <circle id="path-1" cx="32" cy="32" r="32"></circle>
        <mask id="mask-2" maskContentUnits="userSpaceOnUse" maskUnits="objectBoundingBox" x="0" y="0" width="64" height="64" fill="white">
            <use xlink:href="#path-1"></use>
        </mask>
        <rect id="path-3" x="63.5563492" y="53.5563492" width="12" height="32"></rect>
        <mask id="mask-4" maskContentUnits="userSpaceOnUse" maskUnits="objectBoundingBox" x="0" y="0" width="12" height="32" fill="white">
            <use xlink:href="#path-3"></use>
        </mask>
    </defs>
    <g id="Page-1" stroke="none" stroke-width="1" fill="none" fill-rule="evenodd">
        <g id="Desktop" transform="translate(-324.000000, -4952.000000)" stroke="#718DFD">
            <g id="increase" transform="translate(324.000000, 4952.000000)">
                <use id="Oval-8" mask="url(#mask-2)" stroke-width="6" xlink:href="#path-1"></use>
                <path d="M33,32 L29.5002719,32 C26.4625556,32 24,29.5313853 24,26.5 C24,23.4624339 26.4601483,21 29.5002719,21 L39,21" id="Rectangle-24" stroke-width="3" stroke-linecap="round"></path>
                <path d="M34,43 L30.5002719,43 C27.4625556,43 25,40.5313853 25,37.5 C25,34.4624339 27.4601483,32 30.5002719,32 L40,32" id="Rectangle-24" stroke-width="3" stroke-linecap="round" transform="translate(32.500000, 37.500000) scale(-1, -1) translate(-32.500000, -37.500000) "></path>
                <path d="M32.5,20.5 L32.5,15.4009805" id="Line" stroke-width="3" stroke-linecap="round"></path>
                <path d="M32.5,48.5 L32.5,43.4009805" id="Line" stroke-width="3" stroke-linecap="round"></path>
                <path d="M54.5,54.5 L59.0276926,59.0276926" id="Line" stroke-width="3" stroke-linecap="square"></path>
                <use id="Rectangle-23" mask="url(#mask-4)" stroke-width="6" transform="translate(69.556349, 69.556349) scale(-1, 1) rotate(45.000000) translate(-69.556349, -69.556349) " xlink:href="#path-3"></use>
            </g>
        </g>
    </g>
</svg>