<?xml version="1.0" encoding="UTF-8"?>
<svg width="78px" height="78px" viewBox="0 0 78 78" version="1.1" xmlns="http://www.w3.org/2000/svg" xmlns:xlink="http://www.w3.org/1999/xlink">
    <!-- Generator: Sketch 40.3 (33839) - http://www.bohemiancoding.com/sketch -->
    <title>secure</title>
    <desc>Created with Sketch.</desc>
    <defs>
        <circle id="path-1" cx="39" cy="39" r="20"></circle>
        <mask id="mask-2" maskContentUnits="userSpaceOnUse" maskUnits="objectBoundingBox" x="0" y="0" width="40" height="40" fill="white">
            <use xlink:href="#path-1"></use>
        </mask>
        <circle id="path-3" cx="39" cy="39" r="10"></circle>
        <mask id="mask-4" maskContentUnits="userSpaceOnUse" maskUnits="objectBoundingBox" x="0" y="0" width="20" height="20" fill="white">
            <use xlink:href="#path-3"></use>
        </mask>
        <rect id="path-5" x="0" y="0" width="78" height="78" rx="6"></rect>
        <mask id="mask-6" maskContentUnits="userSpaceOnUse" maskUnits="objectBoundingBox" x="0" y="0" width="78" height="78" fill="white">
            <use xlink:href="#path-5"></use>
        </mask>
    </defs>
    <g id="Page-1" stroke="none" stroke-width="1" fill="none" fill-rule="evenodd">
        <g id="Desktop" transform="translate(-1029.000000, -4962.000000)" stroke="#718DFD">
            <g id="secure" transform="translate(1029.000000, 4962.000000)">
                <use id="Oval-6" mask="url(#mask-2)" stroke-width="6" xlink:href="#path-1"></use>
                <use id="Oval-6" mask="url(#mask-4)" stroke-width="6" xlink:href="#path-3"></use>
                <use id="Rectangle-11" mask="url(#mask-6)" stroke-width="6" xlink:href="#path-5"></use>
                <g id="Group-11" transform="translate(38.000000, 21.000000)" stroke-width="3" stroke-linecap="square">
                    <path d="M1,7.5 L1,0.5" id="Line"></path>
                    <path d="M1,35 L1,28" id="Line"></path>
                </g>
                <g id="Group-11" transform="translate(39.500000, 39.000000) rotate(90.000000) translate(-39.500000, -39.000000) translate(38.000000, 22.000000)" stroke-width="3" stroke-linecap="square">
                    <path d="M1.5,7.5 L1.5,0.5" id="Line"></path>
                    <path d="M1.5,34 L1.5,27" id="Line"></path>
                </g>
                <g id="Group-11" transform="translate(39.000000, 39.207107) rotate(45.000000) translate(-39.000000, -39.207107) translate(37.500000, 21.207107)" stroke-width="3" stroke-linecap="square">
                    <path d="M1.5,7.5 L1.5,0.5" id="Line"></path>
                    <path d="M1.5,35.5857864 L1.5,27.5857864" id="Line"></path>
                </g>
                <g id="Group-11" transform="translate(39.707107, 38.500000) rotate(-45.000000) translate(-39.707107, -38.500000) translate(38.207107, 20.500000)" stroke-width="3" stroke-linecap="square">
                    <path d="M1.5,7.5 L1.5,0.5" id="Line"></path>
                    <path d="M1.5,35.5857864 L1.5,26.5857864" id="Line"></path>
                </g>
            </g>
        </g>
    </g>
</svg>